<?xml version="1.0" standalone="no"?>
<!DOCTYPE svg PUBLIC "-//W3C//DTD SVG 20010904//EN"
 "http://www.w3.org/TR/2001/REC-SVG-20010904/DTD/svg10.dtd">
<svg version="1.0" xmlns="http://www.w3.org/2000/svg"
 width="1280.000000pt" height="1280.000000pt" viewBox="0 0 1280.000000 1280.000000"
 preserveAspectRatio="xMidYMid meet">
<metadata>
Created by potrace 1.11, written by Peter Selinger 2001-2013
</metadata>
<g transform="translate(0.000000,1280.000000) scale(0.100000,-0.100000)"
fill="#000000" stroke="none">
<path d="M5949 12786 c-2 -2 -48 -7 -103 -11 -54 -4 -107 -8 -118 -10 -11 -2
-47 -7 -81 -10 -34 -3 -69 -8 -77 -10 -8 -2 -42 -7 -75 -11 -68 -7 -100 -12
-100 -14 0 -1 -9 -3 -20 -4 -36 -5 -111 -17 -141 -23 -16 -3 -38 -7 -49 -8
-11 -2 -20 -4 -20 -5 0 -1 -9 -3 -20 -5 -40 -5 -232 -48 -305 -67 -41 -10 -82
-21 -90 -23 -8 -2 -30 -8 -48 -14 -18 -5 -33 -9 -35 -9 -1 0 -36 -10 -77 -23
-76 -23 -90 -27 -112 -32 -7 -1 -18 -6 -24 -9 -6 -4 -22 -9 -36 -12 -15 -2
-37 -10 -50 -17 -12 -7 -25 -12 -28 -12 -6 1 -17 -2 -45 -12 -11 -3 -21 -6
-22 -6 -2 0 -23 -8 -48 -19 -25 -11 -47 -19 -50 -20 -3 0 -21 -7 -41 -15 -20
-8 -42 -15 -48 -15 -6 0 -21 -7 -33 -15 -12 -9 -26 -14 -30 -13 -4 1 -34 -11
-67 -25 -32 -15 -60 -27 -63 -27 -2 0 -25 -10 -51 -21 -26 -12 -76 -35 -112
-51 -153 -70 -450 -223 -460 -238 -3 -4 -16 -11 -28 -15 -55 -17 -540 -331
-667 -433 -5 -4 -28 -21 -50 -37 -22 -16 -54 -41 -71 -55 -17 -14 -40 -32 -50
-40 -32 -25 -129 -104 -134 -110 -3 -3 -23 -20 -45 -39 -213 -180 -518 -487
-710 -716 -37 -44 -77 -92 -90 -106 -40 -46 -217 -281 -278 -369 -118 -171
-265 -402 -299 -470 -7 -14 -15 -27 -18 -30 -3 -3 -13 -21 -24 -40 -10 -19
-36 -69 -59 -110 -215 -402 -393 -839 -506 -1245 -17 -60 -35 -123 -40 -140
-11 -36 -39 -150 -45 -185 -2 -14 -5 -25 -6 -25 -1 0 -4 -11 -6 -25 -2 -14
-16 -79 -30 -145 -14 -66 -27 -133 -29 -150 -3 -16 -7 -46 -11 -65 -6 -36 -9
-60 -19 -133 -3 -23 -8 -60 -11 -81 -7 -46 -12 -87 -20 -176 -3 -36 -8 -83
-11 -105 -8 -53 -13 -1016 -6 -1029 6 -9 15 -110 17 -183 1 -18 3 -33 6 -33 3
0 5 -15 6 -32 1 -32 12 -133 14 -133 1 0 3 -13 5 -30 9 -72 15 -112 19 -135 9
-44 48 -254 51 -275 2 -11 4 -20 5 -20 1 0 3 -7 5 -15 1 -8 9 -42 16 -75 7
-33 14 -64 15 -70 1 -5 3 -12 4 -15 1 -3 3 -12 5 -20 17 -76 51 -204 85 -315
12 -38 22 -76 23 -82 0 -7 4 -13 9 -13 4 0 7 -3 6 -7 -2 -10 11 -63 22 -88 5
-11 25 -67 46 -125 67 -194 76 -215 85 -224 5 -6 9 -16 9 -23 0 -7 12 -38 26
-70 15 -32 32 -71 39 -88 7 -16 29 -65 49 -108 20 -42 36 -82 36 -87 0 -6 5
-10 10 -10 6 0 10 -5 10 -11 0 -31 301 -578 346 -630 8 -8 14 -19 14 -23 0 -4
8 -18 17 -31 20 -26 30 -40 75 -110 18 -27 35 -52 38 -55 4 -3 23 -30 44 -60
82 -122 282 -382 351 -456 5 -6 33 -37 60 -70 152 -177 426 -450 615 -614 41
-36 77 -67 80 -70 3 -3 27 -24 55 -45 27 -22 59 -48 70 -57 11 -9 67 -53 125
-97 58 -44 116 -88 130 -99 43 -33 339 -232 345 -232 4 0 25 -13 48 -28 39
-27 294 -173 382 -220 104 -54 370 -182 380 -182 2 0 32 -13 67 -29 83 -38
217 -92 298 -120 36 -13 74 -27 85 -32 23 -10 132 -48 156 -53 9 -3 39 -12 65
-21 27 -9 58 -19 70 -21 12 -2 39 -10 62 -18 22 -8 43 -12 46 -9 3 4 6 2 6 -3
0 -5 8 -10 18 -11 9 0 44 -8 77 -18 33 -9 67 -18 75 -20 8 -2 53 -12 100 -23
47 -11 112 -26 145 -33 33 -7 67 -14 75 -16 16 -4 44 -9 95 -17 17 -3 46 -8
65 -12 19 -3 46 -8 60 -9 14 -2 25 -4 25 -5 0 -1 11 -3 25 -5 61 -7 186 -24
220 -30 8 -2 49 -6 90 -10 41 -3 102 -9 135 -13 81 -8 994 -8 1070 1 33 3 87
9 120 12 61 6 107 12 167 21 18 2 53 6 78 9 25 3 56 7 70 10 14 3 39 8 55 10
17 2 45 6 63 9 17 3 47 8 65 12 17 3 52 10 77 15 25 6 56 12 70 14 14 2 75 15
135 30 61 14 117 28 125 30 157 34 522 150 740 235 30 12 66 25 80 30 14 4 72
29 130 55 58 26 128 56 155 68 157 67 540 274 715 388 25 16 52 32 60 36 15 7
255 169 275 185 6 5 60 45 120 90 61 45 135 102 165 127 60 48 162 133 170
141 3 3 43 39 90 80 47 41 112 102 146 135 34 33 83 81 110 107 66 62 144 145
239 253 44 50 85 95 91 100 18 17 186 225 254 315 35 47 76 101 90 120 15 19
32 45 38 57 7 12 18 27 25 35 7 7 27 36 44 63 18 28 36 55 40 60 16 19 153
236 153 241 0 2 11 21 24 42 71 114 270 496 339 652 8 19 27 61 41 92 14 31
26 60 26 63 0 3 11 31 25 61 14 30 25 60 25 68 0 7 3 16 7 19 30 31 244 731
268 877 2 14 6 34 9 45 24 105 68 347 82 450 3 28 8 58 10 68 6 36 17 143 18
179 1 21 3 38 6 38 3 0 6 17 6 38 0 20 4 78 8 127 8 101 10 802 3 910 -13 182
-19 244 -27 295 -9 50 -15 100 -25 200 -2 19 -4 35 -5 35 -1 0 -3 9 -4 20 -2
11 -7 40 -11 65 -5 25 -9 50 -10 55 0 6 -4 26 -8 45 -4 19 -10 51 -13 70 -6
46 -12 75 -14 75 -2 0 -6 19 -15 65 -3 19 -11 53 -17 75 -5 22 -12 49 -14 60
-8 44 -13 64 -39 160 -15 55 -28 105 -30 110 -1 6 -5 18 -8 28 -17 44 -20 53
-22 67 -6 41 -128 389 -151 433 -8 15 -12 27 -9 27 3 0 0 10 -7 23 -7 12 -13
24 -13 27 -1 3 -7 18 -13 33 -7 16 -12 30 -12 31 0 2 -9 24 -20 50 -12 25 -21
48 -20 51 0 3 -15 35 -33 73 -19 37 -40 83 -47 102 -8 19 -17 37 -20 40 -9 8
-84 164 -82 173 1 4 -2 7 -6 7 -5 0 -16 19 -26 41 -35 78 -236 419 -302 512
-19 26 -34 50 -34 53 0 10 -283 402 -299 414 -4 3 -20 23 -36 45 -16 22 -34
45 -39 50 -6 6 -31 35 -56 65 -25 30 -47 57 -50 60 -3 3 -37 41 -75 85 -113
129 -296 315 -432 440 -48 44 -100 92 -116 108 -16 15 -32 27 -37 27 -5 0 -10
3 -12 8 -3 8 -62 59 -128 112 -24 19 -55 45 -67 58 -13 12 -26 22 -29 22 -6 0
-76 54 -114 88 -13 12 -28 22 -31 22 -3 0 -19 11 -35 25 -16 14 -32 25 -36 25
-4 0 -13 6 -20 13 -23 22 -118 87 -127 87 -5 0 -11 3 -13 8 -5 12 -249 171
-313 204 -16 8 -70 39 -120 68 -103 60 -394 209 -505 258 -41 19 -90 41 -109
49 -54 25 -175 75 -186 77 -5 1 -27 10 -49 19 -21 9 -44 17 -50 17 -7 0 -16 4
-22 8 -17 15 -491 168 -549 177 -11 2 -32 8 -47 14 -16 6 -28 8 -28 5 0 -4 -7
-1 -15 6 -8 7 -15 10 -15 6 0 -3 -12 -1 -27 5 -16 6 -39 12 -53 15 -14 2 -35
6 -47 9 -13 3 -33 7 -45 10 -13 3 -35 7 -50 10 -15 2 -35 6 -45 9 -21 6 -61
14 -153 30 -8 2 -31 6 -50 9 -19 4 -48 9 -65 11 -16 3 -43 7 -60 10 -50 10
-87 15 -140 21 -27 3 -66 8 -85 10 -19 3 -62 8 -95 11 -33 2 -85 8 -115 11
-62 7 -984 15 -991 9z"/>
</g>
</svg>
